<?xml version="1.0" standalone="no"?>
<!DOCTYPE svg PUBLIC "-//W3C//DTD SVG 20010904//EN"
 "http://www.w3.org/TR/2001/REC-SVG-20010904/DTD/svg10.dtd">
<svg version="1.0" xmlns="http://www.w3.org/2000/svg"
 width="709.000000pt" height="298.000000pt" viewBox="0 0 709.000000 298.000000"
 preserveAspectRatio="xMidYMid meet">

<g transform="translate(0.000000,298.000000) scale(0.100000,-0.100000)"
fill="#000000" stroke="none">
<path d="M4087 2587 c-28 -20 -33 -78 -9 -107 17 -22 23 -23 46 -12 23 10 26
17 26 61 0 39 -4 53 -19 61 -24 13 -24 13 -44 -3z"/>
<path d="M5627 2582 c-21 -23 -22 -86 -1 -106 36 -36 74 -6 74 60 0 39 -3 46
-26 54 -32 12 -28 13 -47 -8z"/>
<path d="M527 2550 c-92 -23 -169 -89 -210 -179 -17 -37 -22 -66 -22 -146 0
-87 3 -107 26 -155 53 -113 132 -169 250 -178 72 -5 99 5 99 37 0 32 -17 42
-79 46 -133 8 -213 101 -213 247 0 89 21 146 70 189 47 42 91 59 149 59 90 -1
175 -62 204 -147 28 -82 5 -236 -42 -279 -16 -15 -21 -11 -61 50 -38 59 -46
66 -72 64 -57 -6 -52 -34 35 -174 93 -150 109 -169 137 -160 32 11 36 41 11
85 l-22 40 32 37 c59 67 75 116 76 234 0 93 -3 111 -26 161 -49 104 -135 165
-245 174 -32 2 -76 0 -97 -5z"/>
<path d="M1579 2551 c-203 -42 -305 -291 -204 -497 58 -119 229 -205 258 -130
7 18 -20 56 -39 56 -27 0 -91 38 -118 70 -55 66 -70 200 -32 290 31 75 117
130 201 130 127 0 215 -98 215 -241 0 -125 -54 -212 -150 -244 -52 -17 -62
-29 -50 -61 11 -28 31 -35 74 -23 213 59 289 381 131 557 -69 76 -185 114
-286 93z"/>
<path d="M5352 2497 c-6 -7 -12 -37 -14 -67 l-3 -55 -38 -1 c-42 -2 -67 -18
-67 -43 0 -28 22 -41 67 -41 l43 0 0 -187 c0 -104 4 -194 9 -201 5 -8 21 -12
37 -10 l29 3 3 198 2 197 48 0 c50 0 72 12 72 41 0 26 -25 41 -72 43 l-43 2
-3 54 c-3 59 -15 80 -42 80 -10 0 -22 -6 -28 -13z"/>
<path d="M6400 2370 c-19 -19 -20 -33 -20 -224 0 -221 6 -256 43 -256 42 0 47
16 47 156 0 73 5 145 11 161 26 69 100 105 171 84 59 -18 68 -46 68 -210 0
-157 8 -191 43 -191 13 0 28 5 35 12 15 15 16 297 2 350 -14 48 -55 97 -97
114 -53 23 -141 18 -190 -10 -38 -22 -42 -23 -46 -6 -2 10 -14 23 -26 29 -17
9 -24 8 -41 -9z"/>
<path d="M2072 2368 c-13 -13 -18 -431 -6 -462 7 -19 45 -21 62 -4 8 8 12 52
12 132 1 150 10 193 50 229 25 22 40 27 84 27 36 0 60 5 70 16 20 19 20 24 0
53 -15 21 -23 23 -73 19 -31 -2 -71 -12 -90 -21 -33 -16 -35 -16 -48 3 -16 22
-43 26 -61 8z"/>
<path d="M2525 2364 c-138 -71 -169 -251 -61 -358 67 -68 173 -84 257 -40 l31
16 -7 -44 c-10 -58 -29 -83 -76 -102 -50 -20 -94 -20 -158 0 -58 19 -81 10
-81 -33 0 -36 74 -66 165 -66 115 0 200 54 225 141 15 54 13 475 -2 490 -17
17 -55 15 -66 -4 -8 -14 -12 -14 -47 0 -48 20 -141 20 -180 0z m139 -78 c51
-21 76 -60 76 -120 0 -88 -44 -136 -126 -136 -77 0 -128 56 -126 139 0 52 24
89 73 113 41 22 59 22 103 4z"/>
<path d="M3063 2359 c-24 -11 -56 -36 -72 -55 -32 -36 -61 -117 -61 -169 0
-93 59 -192 135 -226 49 -23 142 -25 192 -4 46 19 50 19 56 -5 6 -25 62 -28
71 -4 3 9 6 117 6 240 l0 224 -26 12 c-23 11 -29 10 -45 -10 l-18 -23 -40 21
c-54 27 -142 27 -198 -1z m177 -88 c42 -31 61 -73 62 -145 2 -102 -42 -150
-137 -150 -63 0 -97 20 -125 74 -35 68 -18 176 34 219 40 34 120 35 166 2z"/>
<path d="M3532 2372 c-9 -7 -12 -62 -10 -243 l3 -234 35 0 35 0 6 150 c6 164
15 197 66 231 18 12 46 18 80 18 96 0 113 -38 113 -252 0 -154 2 -161 55 -148
l25 6 0 170 c0 180 -5 208 -48 254 -58 62 -163 75 -246 31 -43 -23 -46 -23
-46 -6 0 27 -40 40 -68 23z"/>
<path d="M4070 2361 c-11 -22 -12 -400 -1 -441 8 -28 43 -39 67 -20 11 10 14
53 14 230 0 120 -3 225 -6 234 -9 23 -61 21 -74 -3z"/>
<path d="M4302 2372 c-30 -4 -46 -36 -32 -62 10 -18 21 -20 125 -20 63 0 115
-3 115 -7 0 -5 -23 -35 -52 -68 -83 -98 -194 -239 -200 -255 -3 -8 -2 -25 3
-37 8 -23 11 -23 184 -23 173 0 176 0 184 23 5 12 5 30 -1 40 -7 15 -25 17
-128 17 -66 0 -120 2 -120 5 0 3 57 73 128 155 140 166 155 191 129 217 -13
14 -40 17 -164 17 -81 1 -158 0 -171 -2z"/>
<path d="M4835 2361 c-176 -79 -176 -371 0 -452 49 -23 142 -25 192 -4 46 19
50 19 56 -5 6 -23 45 -28 65 -8 9 9 12 76 12 240 l0 228 -26 12 c-23 11 -29
10 -44 -10 l-18 -22 -44 20 c-55 25 -140 26 -193 1z m175 -89 c44 -34 64 -79
63 -148 -1 -101 -45 -148 -138 -148 -63 0 -97 20 -125 74 -34 67 -18 177 32
217 45 35 123 38 168 5z"/>
<path d="M5620 2361 c-6 -12 -10 -103 -10 -226 0 -123 4 -214 10 -226 12 -21
50 -25 68 -7 9 9 12 74 12 233 0 159 -3 224 -12 233 -18 18 -56 14 -68 -7z"/>
<path d="M5945 2361 c-124 -58 -174 -215 -110 -347 51 -104 195 -163 195 -79
0 18 -10 30 -39 44 -76 39 -114 119 -96 201 18 81 108 133 192 109 137 -38
147 -243 15 -303 -50 -23 -62 -50 -34 -79 20 -20 22 -20 66 -3 55 21 118 88
134 144 16 53 15 145 -2 186 -20 48 -75 107 -121 127 -53 25 -147 24 -200 0z"/>
<path d="M1061 2231 c-71 -7 -95 -26 -75 -58 9 -15 30 -18 133 -21 l121 -3 12
26 c24 53 -38 71 -191 56z"/>
<path d="M1005 1225 c-23 -22 -25 -31 -25 -120 0 -91 9 -131 34 -147 23 -16
92 -8 114 12 20 19 22 31 22 126 0 98 -2 107 -25 129 -16 17 -35 25 -60 25
-25 0 -44 -8 -60 -25z m86 -15 c17 -10 19 -22 19 -115 l0 -105 -27 -6 c-49
-13 -58 3 -61 115 -3 98 -2 102 20 111 30 12 27 12 49 0z"/>
<path d="M1980 1230 c0 -13 7 -20 20 -20 13 0 20 7 20 20 0 13 -7 20 -20 20
-13 0 -20 -7 -20 -20z"/>
<path d="M3630 1101 l0 -151 55 0 c77 0 95 19 95 103 0 81 -17 107 -70 107
-39 0 -39 0 -42 42 -2 31 -8 44 -20 46 -17 3 -18 -9 -18 -147z m105 -46 l0
-70 -32 -3 -33 -3 0 69 c0 38 3 72 7 76 4 4 19 6 33 4 24 -3 25 -6 25 -73z"/>
<path d="M3840 1230 c0 -13 7 -20 20 -20 13 0 20 7 20 20 0 13 -7 20 -20 20
-13 0 -20 -7 -20 -20z"/>
<path d="M4275 1240 c-9 -15 4 -30 26 -30 12 0 19 7 19 20 0 21 -33 29 -45 10z"/>
<path d="M4150 1190 c0 -11 -7 -23 -15 -26 -8 -4 -15 -12 -15 -20 0 -8 7 -14
15 -14 12 0 15 -15 15 -78 0 -47 5 -83 12 -90 18 -18 68 -15 68 3 0 8 -9 15
-20 15 -21 0 -22 2 -22 80 0 68 0 70 22 70 28 0 25 28 -2 32 -17 2 -22 9 -20
26 3 17 -2 22 -17 22 -14 0 -21 -6 -21 -20z"/>
<path d="M1219 1153 c0 -5 -1 -52 -2 -105 -2 -87 0 -98 16 -98 15 0 17 10 17
78 0 82 9 102 45 102 13 0 22 6 22 15 0 11 -12 15 -49 15 -26 0 -48 -3 -49 -7z"/>
<path d="M1366 1147 c-21 -15 -26 -88 -8 -109 6 -7 12 -26 14 -43 2 -26 7 -30
33 -31 17 -1 38 -2 48 -3 11 -1 17 -9 17 -26 0 -24 -3 -25 -60 -25 -47 0 -60
-3 -60 -15 0 -12 14 -15 64 -15 73 0 96 14 96 59 0 35 -17 50 -64 58 -20 3
-36 10 -36 15 0 5 4 7 9 4 14 -9 69 14 75 31 4 9 9 38 12 65 l5 48 -63 0 c-38
0 -72 -6 -82 -13z m104 -44 c0 -42 -13 -55 -51 -51 -27 2 -35 8 -37 26 -6 41
5 52 48 52 37 0 40 -2 40 -27z"/>
<path d="M1570 1145 c0 -11 11 -15 39 -15 26 0 41 -5 45 -16 11 -29 6 -34 -33
-34 -45 0 -71 -26 -71 -72 0 -44 23 -58 95 -56 41 1 66 6 69 14 3 7 -2 15 -10
18 -10 4 -14 24 -14 80 0 86 -8 96 -79 96 -30 0 -41 -4 -41 -15z m88 -127 c-3
-29 -6 -33 -33 -33 -21 0 -31 5 -33 18 -6 32 6 47 38 47 29 0 31 -2 28 -32z"/>
<path d="M1769 1146 c-1 -6 -3 -53 -4 -103 -2 -84 -1 -93 16 -93 16 0 19 10
21 88 l3 87 29 3 c39 5 46 -10 46 -100 0 -63 3 -78 15 -78 22 0 22 172 -1 194
-18 19 -123 20 -125 2z"/>
<path d="M1980 1054 c0 -95 2 -105 18 -102 21 4 27 54 17 146 -5 44 -11 62
-21 62 -11 0 -14 -21 -14 -106z"/>
<path d="M2080 1145 c0 -11 11 -15 40 -15 l40 0 -45 -74 c-61 -101 -60 -106
20 -106 52 0 63 3 59 14 -3 9 -22 16 -44 18 l-39 3 44 70 c61 96 60 105 -15
105 -47 0 -60 -3 -60 -15z"/>
<path d="M2266 1138 c-24 -35 -22 -142 4 -168 25 -25 110 -29 110 -6 0 10 -14
16 -42 18 -39 3 -43 6 -46 31 -3 26 -2 27 47 27 l51 0 0 41 c0 63 -13 79 -65
79 -34 0 -47 -5 -59 -22z m88 -24 c13 -34 7 -44 -29 -44 -32 0 -35 2 -35 30 0
26 3 30 29 30 17 0 31 -6 35 -16z"/>
<path d="M2572 1148 c-7 -7 -12 -29 -12 -50 0 -40 19 -58 60 -58 17 0 21 -5
18 -27 -3 -24 -8 -28 -40 -31 -26 -2 -38 -8 -38 -18 0 -12 11 -14 47 -12 39 2
50 8 62 30 22 39 6 78 -39 93 -50 17 -49 49 3 53 24 2 37 8 37 18 0 18 -80 20
-98 2z"/>
<path d="M2746 1144 c-25 -25 -22 -148 4 -174 25 -25 110 -29 110 -6 0 10 -14
16 -42 18 -39 3 -43 6 -46 31 -3 26 -2 27 47 27 l51 0 0 43 c0 30 -6 49 -18
60 -23 21 -86 22 -106 1z m85 -24 c5 -41 3 -45 -28 -48 -31 -3 -33 -1 -33 27
0 28 3 31 30 31 17 0 31 -4 31 -10z"/>
<path d="M2930 1077 c0 -110 12 -127 86 -127 l54 0 0 105 c0 85 -3 105 -15
105 -11 0 -15 -18 -17 -81 -3 -86 -16 -110 -52 -96 -13 5 -16 22 -16 92 0 78
-2 85 -20 85 -18 0 -20 -7 -20 -83z"/>
<path d="M3146 1144 c-20 -19 -21 -68 -2 -83 8 -7 27 -16 43 -20 21 -6 28 -14
28 -32 0 -21 -5 -24 -43 -27 -53 -4 -52 -26 1 -30 60 -5 79 11 75 66 -3 45 -4
47 -41 56 -30 8 -37 14 -35 30 2 16 11 22 40 24 27 2 35 7 31 18 -7 19 -77 18
-97 -2z"/>
<path d="M3436 1144 c-12 -11 -16 -35 -16 -88 0 -84 15 -106 71 -106 58 0 73
18 77 98 4 61 1 73 -17 91 -26 26 -92 29 -115 5z m89 -89 c0 -67 -1 -70 -24
-73 -33 -5 -51 21 -51 74 0 63 7 76 44 72 l31 -3 0 -70z"/>
<path d="M3840 1035 l0 -125 -25 0 c-16 0 -25 -6 -25 -15 0 -19 60 -21 78 -3
8 8 12 54 12 140 0 121 -1 128 -20 128 -19 0 -20 -7 -20 -125z"/>
<path d="M3956 1138 c-24 -35 -22 -142 4 -168 25 -25 110 -29 110 -5 0 10 -10
15 -29 15 -44 0 -61 10 -61 36 0 21 5 23 53 26 l52 3 -3 45 c-5 59 -16 70 -68
70 -33 0 -46 -5 -58 -22z m92 -40 c3 -26 1 -28 -32 -28 -31 0 -36 3 -36 23 0
31 9 39 40 35 19 -2 26 -10 28 -30z"/>
<path d="M4280 1055 c0 -99 1 -105 21 -105 19 0 20 5 18 105 -2 94 -5 105 -21
105 -16 0 -18 -10 -18 -105z"/>
<path d="M4370 1148 c0 -11 27 -116 46 -180 3 -12 15 -18 33 -18 26 0 28 4 50
93 13 50 25 98 28 105 3 7 -3 12 -15 12 -15 0 -22 -11 -31 -47 -7 -27 -17 -66
-23 -88 l-11 -40 -22 85 c-15 61 -26 86 -38 88 -9 2 -17 -3 -17 -10z"/>
<path d="M4587 1142 c-13 -14 -17 -38 -17 -90 0 -62 3 -73 22 -86 31 -22 84
-20 108 4 26 26 28 133 4 168 -20 29 -93 31 -117 4z m88 -87 c0 -66 -1 -70
-24 -73 -33 -5 -42 9 -45 69 -3 63 7 81 43 77 25 -3 26 -5 26 -73z"/>
<path d="M4792 1148 c-7 -7 -12 -29 -12 -50 0 -40 19 -58 60 -58 17 0 21 -5
18 -27 -3 -24 -8 -28 -40 -31 -54 -5 -52 -32 2 -32 52 0 79 26 74 70 -5 43
-10 48 -50 56 -28 5 -35 10 -32 28 2 16 11 22 41 24 24 2 37 8 37 18 0 18 -80
20 -98 2z"/>
<path d="M5076 1144 c-12 -11 -16 -35 -16 -89 0 -65 3 -76 22 -89 30 -21 108
-22 108 -1 0 11 -11 15 -40 15 -33 0 -42 4 -49 23 -12 32 -6 37 50 37 l49 0 0
43 c0 30 -6 49 -18 60 -23 21 -86 22 -106 1z m84 -44 c0 -26 -4 -30 -28 -30
-36 0 -40 5 -34 35 3 20 10 25 33 25 26 0 29 -4 29 -30z"/>
<path d="M5260 1055 c0 -98 1 -105 20 -105 18 0 20 7 20 85 0 70 3 87 16 92 9
3 24 2 33 -4 13 -8 15 -25 13 -92 -3 -76 -2 -81 17 -81 19 0 20 7 23 88 3 87
3 87 31 90 17 2 27 -2 28 -10 0 -7 1 -48 1 -90 0 -70 2 -78 19 -78 17 0 19 8
19 89 0 65 -4 94 -14 104 -11 11 -43 15 -120 15 l-106 1 0 -104z"/>
<path d="M5680 1071 c0 -110 8 -121 86 -120 l54 2 0 103 c0 97 -1 104 -20 104
-18 0 -20 -7 -20 -85 0 -70 -3 -87 -16 -92 -36 -14 -49 10 -52 96 -2 63 -6 81
-17 81 -12 0 -15 -18 -15 -89z"/>
<path d="M5890 1055 c0 -87 3 -105 15 -105 12 0 15 15 15 78 0 88 7 105 41
100 23 -3 24 -7 27 -91 2 -77 5 -88 20 -85 14 3 17 16 18 74 1 88 7 106 36
102 22 -3 23 -8 26 -90 3 -80 5 -88 22 -88 18 0 20 7 20 83 0 99 -14 127 -64
127 -17 0 -37 -5 -43 -11 -8 -8 -13 -8 -17 0 -4 6 -32 11 -62 11 l-54 0 0
-105z"/>
<path d="M2660 645 c-23 -25 -25 -35 -7 -35 13 0 57 40 57 51 0 14 -32 3 -50
-16z"/>
<path d="M3010 640 c0 -13 7 -20 20 -20 13 0 20 7 20 20 0 13 -7 20 -20 20
-13 0 -20 -7 -20 -20z"/>
<path d="M3610 516 c0 -150 2 -156 46 -156 16 0 19 27 3 32 -6 2 -11 51 -14
123 -1 66 -3 126 -4 133 -1 6 -8 12 -16 12 -13 0 -15 -23 -15 -144z"/>
<path d="M4480 555 c0 -87 3 -105 15 -105 8 0 15 6 16 13 0 6 1 54 2 104 2 83
0 93 -15 93 -16 0 -18 -12 -18 -105z"/>
<path d="M2592 479 c4 -107 13 -119 92 -118 l52 1 -1 104 c0 91 -2 104 -17
104 -15 0 -18 -12 -20 -81 -3 -86 -16 -110 -52 -96 -13 5 -16 22 -16 92 0 80
-1 85 -21 85 -20 0 -21 -4 -17 -91z"/>
<path d="M2800 465 c0 -98 1 -105 20 -105 17 0 19 8 22 88 l3 87 30 0 30 0 3
-87 c3 -80 5 -88 22 -88 18 0 20 7 20 88 0 110 -9 122 -93 122 l-57 0 0 -105z"/>
<path d="M3012 483 c-1 -101 4 -123 24 -123 11 0 14 21 14 105 0 96 -2 105
-19 105 -17 0 -19 -9 -19 -87z"/>
<path d="M3135 556 c-22 -16 -30 -101 -14 -153 8 -26 17 -34 44 -39 39 -7 66
-3 67 11 1 6 -7 11 -18 13 -67 10 -65 7 -62 80 l3 67 37 3 c20 2 39 10 42 18
7 19 -73 20 -99 0z"/>
<path d="M3307 557 c-21 -15 -32 -114 -17 -152 21 -55 120 -60 137 -7 13 39 9
137 -6 156 -16 19 -90 22 -114 3z m88 -86 c0 -50 -4 -66 -17 -75 -32 -20 -53
4 -56 64 -4 72 1 82 40 78 l33 -3 0 -64z"/>
<path d="M3717 493 c1 -43 2 -83 3 -90 1 -27 31 -42 85 -42 l55 1 0 104 c0 97
-1 104 -20 104 -18 0 -20 -7 -20 -84 0 -77 -2 -85 -20 -91 -38 -12 -50 11 -50
96 0 69 -2 79 -18 79 -16 0 -18 -9 -15 -77z"/>
<path d="M3931 556 c-17 -21 -20 -73 -5 -102 8 -14 14 -37 14 -50 0 -21 5 -24
38 -24 46 0 65 -12 60 -36 -3 -16 -14 -20 -61 -22 -42 -2 -57 -7 -57 -17 0
-24 122 -21 143 3 39 43 6 102 -55 102 -16 0 -28 5 -28 10 0 6 13 10 29 10 35
0 61 23 62 56 1 13 2 38 3 54 l1 30 -66 0 c-44 0 -70 -5 -78 -14z m109 -43 c0
-42 -13 -55 -51 -51 -27 2 -35 8 -37 26 -6 41 5 52 48 52 37 0 40 -2 40 -27z"/>
<path d="M4140 555 c0 -11 11 -15 39 -15 26 0 41 -5 45 -16 9 -24 -2 -34 -38
-34 -41 0 -66 -26 -66 -68 0 -49 22 -62 96 -60 66 2 90 13 60 30 -13 7 -16 25
-16 83 0 85 -9 95 -79 95 -30 0 -41 -4 -41 -15z m90 -117 c0 -34 -15 -50 -41
-46 -47 6 -37 68 11 68 25 0 30 -4 30 -22z"/>
<path d="M4337 564 c-1 -2 -2 -47 0 -101 2 -79 5 -99 18 -101 12 -3 15 9 15
71 0 95 5 107 41 107 19 0 29 5 29 15 0 11 -12 14 -50 14 -27 -1 -51 -3 -53
-5z"/>
<path d="M4472 383 c2 -10 13 -19 26 -21 17 -3 22 2 22 17 0 16 -6 21 -26 21
-19 0 -25 -5 -22 -17z"/>
</g>
</svg>
